<svg xmlns="http://www.w3.org/2000/svg" viewBox="0 0 100 150">
  <defs>
    <clipPath id="seed-dark"><path d="M 50 10 C 30 28, 10 64, 10 90 C 10 122, 28 139, 50 139 C 72 139, 90 122, 90 90 C 90 64, 70 28, 50 10 Z"/></clipPath>
    <linearGradient id="fade-dark" x1="0%" y1="0%" x2="100%" y2="0%">
      <stop offset="0%" stop-color="#2E8B8B"/>
      <stop offset="100%" stop-color="#C4875C"/>
    </linearGradient>
  </defs>
  <rect width="100" height="150" fill="#0A1420"/>
  <path d="M 50 10 C 30 28, 10 64, 10 90 C 10 122, 28 139, 50 139 C 72 139, 90 122, 90 90 C 90 64, 70 28, 50 10 Z" fill="#2E8B8B"/>
  <g clip-path="url(#seed-dark)">
    <path d="M 43.0 150.0 L 43.4 149.2 L 43.8 148.5 L 44.3 147.7 L 44.7 147.0 L 45.1 146.2 L 45.5 145.5 L 45.9 144.7 L 46.4 144.0 L 46.8 143.2 L 47.2 142.5 L 47.6 141.7 L 48.0 141.0 L 48.5 140.2 L 48.9 139.4 L 49.3 138.7 L 49.7 137.9 L 50.1 137.2 L 50.6 136.4 L 51.0 135.7 L 51.4 134.9 L 51.8 134.2 L 52.2 133.4 L 52.7 132.7 L 53.1 131.9 L 53.5 131.1 L 53.9 130.4 L 54.3 129.6 L 54.7 128.9 L 55.1 128.1 L 55.5 127.4 L 56.0 126.6 L 56.4 125.8 L 56.8 125.1 L 57.2 124.3 L 57.6 123.5 L 58.0 122.8 L 58.4 122.0 L 58.8 121.3 L 59.2 120.5 L 59.6 119.7 L 59.9 118.9 L 60.3 118.2 L 60.7 117.4 L 61.1 116.6 L 61.5 115.8 L 61.8 115.1 L 62.2 114.3 L 62.6 113.5 L 62.9 112.7 L 63.3 111.9 L 63.6 111.1 L 64.0 110.3 L 64.3 109.6 L 64.6 108.8 L 65.0 108.0 L 65.3 107.2 L 65.6 106.3 L 65.9 105.5 L 66.2 104.7 L 66.5 103.9 L 66.7 103.1 L 67.0 102.3 L 67.2 101.4 L 67.5 100.6 L 67.7 99.8 L 67.9 99.0 L 68.2 98.1 L 68.3 97.3 L 68.5 96.4 L 68.7 95.6 L 68.9 94.7 L 69.0 93.9 L 69.1 93.0 L 69.2 92.2 L 69.3 91.3 L 69.4 90.5 L 69.4 89.6 L 69.5 88.7 L 69.5 87.9 L 69.5 87.0 L 69.5 86.1 L 69.4 85.3 L 69.4 84.4 L 69.3 83.6 L 69.1 82.7 L 69.0 81.9 L 68.8 81.0 L 68.6 80.2 L 68.4 79.3 L 68.2 78.5 L 67.9 77.7 L 67.6 76.9 L 67.3 76.1 L 66.9 75.3 L 66.5 74.5 L 66.1 73.8 L 65.7 73.0 L 65.2 72.3 L 64.7 71.6 L 64.1 70.9 L 63.6 70.3 L 63.0 69.7 L 62.3 69.1 L 61.7 68.5 L 61.0 68.0 L 60.3 67.5 L 59.6 67.0 L 58.8 66.6 L 58.0 66.2 L 57.2 65.9 L 56.4 65.6 L 55.6 65.4 L 54.7 65.2 L 53.9 65.1 L 53.0 65.0 L 52.2 65.0 L 51.3 65.0 L 50.4 65.1 L 49.6 65.3 L 48.8 65.5 L 48.0 65.8 L 47.2 66.1 L 46.4 66.5 L 45.7 67.0 L 45.0 67.5 L 40 67.5 L 40 0 L 100 0 L 100 150 L 43.0 150 Z" fill="#C4875C"/>
    <path d="M 40 0 L 60 0 L 60 67.5 L 40 67.5 Z" fill="url(#fade-dark)"/>
  </g>
  <g clip-path="url(#seed-dark)"><path d="M 52.6 155.4 L 53.0 154.6 L 53.3 153.8 L 53.7 153.0 L 54.0 152.2 L 54.4 151.4 L 54.8 150.6 L 55.1 149.8 L 55.5 149.1 L 55.9 148.3 L 56.2 147.5 L 56.6 146.7 L 56.9 145.9 L 57.3 145.1 L 57.7 144.3 L 58.0 143.6 L 58.4 142.8 L 58.8 142.0 L 59.1 141.2 L 59.5 140.4 L 59.9 139.6 L 60.2 138.8 L 60.6 138.0 L 61.0 137.2 L 61.3 136.4 L 61.7 135.7 L 62.1 134.9 L 62.4 134.1 L 62.8 133.3 L 63.2 132.5 L 63.5 131.7 L 63.9 130.9 L 64.3 130.1 L 64.6 129.3 L 65.0 128.5 L 65.4 127.6 L 65.7 126.8 L 66.1 126.0 L 66.4 125.2 L 66.8 124.4 L 67.2 123.6 L 67.5 122.7 L 67.9 121.9 L 68.2 121.1 L 68.6 120.2 L 68.9 119.4 L 69.2 118.6 L 69.6 117.7 L 69.9 116.9 L 70.2 116.0 L 70.6 115.2 L 70.9 114.3 L 71.2 113.4 L 71.5 112.6 L 71.8 111.7 L 72.1 110.8 L 72.4 109.9 L 72.7 109.0 L 73.0 108.1 L 73.3 107.2 L 73.5 106.3 L 73.8 105.4 L 74.0 104.5 L 74.3 103.6 L 74.5 102.6 L 74.7 101.7 L 74.9 100.7 L 75.1 99.8 L 75.3 98.8 L 75.4 97.9 L 75.6 96.9 L 75.7 95.9 L 75.8 94.9 L 75.9 94.0 L 76.0 93.0 L 76.1 92.0 L 76.1 91.0 L 76.1 89.9 L 76.1 88.9 L 76.1 87.9 L 76.1 86.9 L 76.0 85.9 L 75.9 84.8 L 75.8 83.8 L 75.6 82.8 L 75.4 81.8 L 75.2 80.7 L 75.0 79.7 L 74.7 78.7 L 74.4 77.7 L 74.1 76.6 L 73.7 75.6 L 73.3 74.6 L 72.8 73.7 L 72.3 72.7 L 71.8 71.7 L 71.2 70.8 L 70.6 69.9 L 70.0 69.0 L 69.3 68.1 L 68.6 67.2 L 67.8 66.4 L 67.0 65.6 L 66.1 64.9 L 65.3 64.1 L 64.3 63.5 L 63.4 62.8 L 62.4 62.3 L 61.3 61.7 L 60.3 61.3 L 59.2 60.8 L 58.0 60.5 L 56.9 60.2 L 55.7 60.0 L 54.5 59.8 L 53.3 59.8 L 52.1 59.8 L 50.9 59.9 L 49.7 60.0 L 48.5 60.3 L 47.3 60.6 L 46.1 61.1 L 45.0 61.6 L 43.9 62.2 L 42.9 62.9 L 41.9 63.7 L 40.9 64.6 L 40.1 65.5 L 39.3 66.5 L 38.6 67.6 L 38.0 68.8 L 37.5 70.0 L 37.1 71.2 L 36.9 72.5 L 36.7 73.8 L 36.7 75.2 L 36.9 76.5 L 37.2 77.8 L 37.6 79.1 L 38.1 80.3 L 38.8 81.5 L 39.6 82.6 L 40.5 83.6 L 41.6 84.5 L 42.7 85.3 L 44.0 85.9 L 45.3 86.4 L 46.7 86.7 L 48.1 86.8 L 49.5 86.7 L 50.6 86.5 A 4.2 4.2 0 0 0 49.4 78.2 L 48.8 78.3 L 48.5 78.3 L 48.2 78.2 L 47.9 78.1 L 47.6 78.0 L 47.3 77.8 L 47.0 77.6 L 46.8 77.3 L 46.6 77.1 L 46.4 76.7 L 46.2 76.4 L 46.1 76.1 L 46.0 75.7 L 46.0 75.3 L 46.0 74.9 L 46.0 74.5 L 46.1 74.1 L 46.2 73.7 L 46.4 73.3 L 46.6 73.0 L 46.8 72.6 L 47.1 72.2 L 47.4 71.9 L 47.7 71.6 L 48.1 71.3 L 48.5 71.1 L 48.9 70.9 L 49.3 70.7 L 49.8 70.5 L 50.2 70.4 L 50.7 70.3 L 51.2 70.2 L 51.7 70.2 L 52.2 70.2 L 52.8 70.3 L 53.3 70.3 L 53.8 70.5 L 54.3 70.6 L 54.8 70.8 L 55.3 71.0 L 55.8 71.2 L 56.3 71.5 L 56.8 71.8 L 57.2 72.1 L 57.7 72.5 L 58.1 72.9 L 58.5 73.3 L 58.9 73.7 L 59.3 74.2 L 59.7 74.7 L 60.0 75.2 L 60.4 75.7 L 60.7 76.2 L 61.0 76.8 L 61.2 77.3 L 61.5 77.9 L 61.7 78.5 L 61.9 79.1 L 62.1 79.7 L 62.3 80.4 L 62.4 81.0 L 62.6 81.7 L 62.7 82.3 L 62.8 83.0 L 62.8 83.7 L 62.9 84.3 L 62.9 85.0 L 62.9 85.7 L 62.9 86.4 L 62.9 87.1 L 62.9 87.8 L 62.8 88.5 L 62.7 89.2 L 62.7 90.0 L 62.5 90.7 L 62.4 91.4 L 62.3 92.1 L 62.1 92.8 L 62.0 93.5 L 61.8 94.3 L 61.6 95.0 L 61.4 95.7 L 61.2 96.4 L 61.0 97.2 L 60.7 97.9 L 60.5 98.6 L 60.2 99.3 L 59.9 100.0 L 59.7 100.8 L 59.4 101.5 L 59.1 102.2 L 58.8 102.9 L 58.4 103.7 L 58.1 104.4 L 57.8 105.1 L 57.4 105.8 L 57.1 106.5 L 56.7 107.3 L 56.4 108.0 L 56.0 108.7 L 55.6 109.4 L 55.2 110.1 L 54.8 110.8 L 54.4 111.6 L 54.0 112.3 L 53.6 113.0 L 53.2 113.7 L 52.8 114.4 L 52.4 115.2 L 52.0 115.9 L 51.5 116.6 L 51.1 117.3 L 50.7 118.0 L 50.2 118.7 L 49.8 119.5 L 49.4 120.2 L 48.9 120.9 L 48.5 121.6 L 48.0 122.3 L 47.6 123.0 L 47.1 123.8 L 46.7 124.5 L 46.2 125.2 L 45.7 125.9 L 45.3 126.6 L 44.8 127.4 L 44.3 128.1 L 43.9 128.8 L 43.4 129.5 L 42.9 130.2 L 42.5 131.0 L 42.0 131.7 L 41.5 132.4 L 41.0 133.1 L 40.6 133.8 L 40.1 134.6 L 39.6 135.3 L 39.1 136.0 L 38.7 136.7 L 38.2 137.4 L 37.7 138.2 L 37.2 138.9 L 36.8 139.6 L 36.3 140.3 L 35.8 141.0 L 35.3 141.8 L 34.8 142.5 L 34.4 143.2 L 33.9 143.9 L 33.4 144.6 Z" fill="#0A1420"/></g>
</svg>
